# xmcd
#
# Track frame offsets:
#	182
#	23747
#	45362
#	61650
#	87942
#	98792
#	116877
#	137150
#	155975
#	168042
#	184090
#
# Disc length: 2611 seconds
#
# Revision: 0
# Processed by: cddbd v1.5.2PL0 Copyright (c) Steve Scherf et al.
# Submitted via: VUPlayer 2.49
#
DISCID=880a310b
DTITLE=The Donkeys - The Donkeys
DYEAR=1998
DGENRE=Blues australia
TTITLE0=Nuclear Medicine
TTITLE1=Lose These Blues
TTITLE2=One Time Around
TTITLE3=Double-Minded Man
TTITLE4=Backstroke
TTITLE5=Legal Thing
TTITLE6=Keep Your Lamp Trimmed And Burning
TTITLE7=There Is A Healer
TTITLE8=Everything Is Broken
TTITLE9=Drifting
TTITLE10=Warp And Woof
EXTD=
EXTT0=
EXTT1=
EXTT2=
EXTT3=
EXTT4=
EXTT5=
EXTT6=
EXTT7=
EXTT8=
EXTT9=
EXTT10=
PLAYORDER=
